<svg xmlns="http://www.w3.org/2000/svg" viewBox="0 0 330 100" role="img" aria-labelledby="t">
  <title id="t">Elegant Chairs Solutions</title>
  <ellipse cx="48" cy="86" rx="38" ry="7" fill="#ECE6DA"/>
  <g fill="none" stroke="#1B1B1B" stroke-width="5" stroke-linecap="round" stroke-linejoin="round">
    <path d="M28 40 C26 22 40 8 58 8 C74 8 83 20 80 36 L76 79 L74 88"/>
    <path d="M28 40 C18 38 14 46 17 56 C20 66 24 76 28 84 L29 88"/>
    <path d="M28 40 C34 40 38 46 36 52"/>
    <path d="M35 52 C41 48 50 48 56 51"/>
    <path d="M35 59 C41 55 50 55 56 58"/>
    <path d="M35 66 C41 62 50 62 56 65"/>
    <path d="M56 41 C61 34 74 34 77 43"/>
    <path d="M56 41 C54 52 56 70 58 82 L60 90"/>
    <path d="M58 82 C64 84 70 83 76 79"/>
    <path d="M27 76 C37 73 47 72 56 74"/>
  </g>
  <text x="100" y="50" font-family="'Times New Roman', Georgia, 'Noto Serif', serif" font-size="34" fill="#2A2A2A">Elegant chairs</text>
  <text x="101" y="80" font-family="'Times New Roman', Georgia, 'Noto Serif', serif" font-size="22" letter-spacing="4" fill="#8A6A3B">SOLUTIONS</text>
</svg>
